<svg xmlns="http://www.w3.org/2000/svg" width="1440" height="720" viewBox="0 0 1440 720">
  <metadata><?xpacket begin="﻿" id="W5M0MpCehiHzreSzNTczkc9d"?>
<x:xmpmeta xmlns:x="adobe:ns:meta/" x:xmptk="Adobe XMP Core 5.6-c138 79.159824, 2016/09/14-01:09:01        ">
   <rdf:RDF xmlns:rdf="http://www.w3.org/1999/02/22-rdf-syntax-ns#">
      <rdf:Description rdf:about=""/>
   </rdf:RDF>
</x:xmpmeta>
                                                                                                    
                                                                                                    
                                                                                                    
                                                                                                    
                                                                                                    
                                                                                                    
                                                                                                    
                                                                                                    
                                                                                                    
                                                                                                    
                                                                                                    
                                                                                                    
                                                                                                    
                                                                                                    
                                                                                                    
                                                                                                    
                                                                                                    
                                                                                                    
                                                                                                    
                                                                                                    
                           
<?xpacket end="w"?></metadata>
<defs>
    <style>
      .cls-1 {
        fill: #a864a8;
        fill-rule: evenodd;
      }
    </style>
  </defs>
  <g id="ES">
    <g>
      <path id="SCHINDLER" class="cls-1" d="M781.489,324.65a19.313,19.313,0,0,0-13.3,4.741,14.943,14.943,0,0,0-5.343,11.692q0,10.367,12.736,15.751l5.987,2.491a26.632,26.632,0,0,1,4.018,2.109,12.532,12.532,0,0,1,2.752,2.371,8.414,8.414,0,0,1,1.567,2.772,10.423,10.423,0,0,1,.5,3.315,10.145,10.145,0,0,1-2.893,7.433,10.691,10.691,0,0,1-15.709-1.085q-1.608-2.088-2.251-7.554l-9.482,2.09q1.285,8.679,6.469,13.46a19.078,19.078,0,0,0,13.339,4.781,19.581,19.581,0,0,0,14.264-5.625,18.956,18.956,0,0,0,5.705-14.143,16.8,16.8,0,0,0-3.5-10.788q-3.5-4.4-11.05-7.453l-6.187-2.532q-6.75-2.772-6.75-7.312a6.852,6.852,0,0,1,2.571-5.465,9.575,9.575,0,0,1,6.469-2.21,9.47,9.47,0,0,1,5.183,1.286q1.929,1.125,4.058,4.822l7.594-4.5q-6.027-10.446-16.754-10.446h0Zm77.983,0q-15.307,0-24.951,11.371a31.854,31.854,0,0,0-7.834,21.134,30.772,30.772,0,0,0,9.361,22.581,31.137,31.137,0,0,0,22.7,9.281,33.816,33.816,0,0,0,16.875-4.54v-11.29a47.327,47.327,0,0,1-4.359,3.294,24.233,24.233,0,0,1-4,2.17,19.809,19.809,0,0,1-8.4,1.607,21.758,21.758,0,0,1-16.152-6.71,22.6,22.6,0,0,1-6.59-16.473,23.161,23.161,0,0,1,6.59-16.715,21.384,21.384,0,0,1,16.111-6.871q8.679,0,16.8,6.791V329.19a31.672,31.672,0,0,0-16.152-4.54h0Zm57.694,1.205H907.8v62.037h9.362V358.923h26.759v28.969h9.361V325.855h-9.361v24.269H917.166V325.855Zm69.626,0v62.037h9.362V325.855h-9.362Zm52.268,62.037V344.458l45.24,47.211V325.855h-9.36v43.113l-45.24-47.332v66.256h9.36Zm91.61,0q9.435,0,14.58-1.727a29.236,29.236,0,0,0,10.53-6.148q10.005-8.839,10-23.143,0-14.264-9.6-23.023a27.643,27.643,0,0,0-10.57-6.148q-5.415-1.846-14.78-1.848h-13.02v62.037h12.86Zm-3.5-53.237h4.22q11.97,0,18.12,5.665,6.825,6.348,6.83,16.554,0,10.125-6.91,16.433a21.308,21.308,0,0,1-7.55,4.46,35.268,35.268,0,0,1-10.49,1.326h-4.22V334.655Zm69.02-8.8v62.037h27.61v-8.8h-18.24V325.855h-9.37Zm89.36,0h-34.23v62.037h34.23v-8.8h-24.87V358.36h24.15v-8.8h-24.15V334.655h24.87v-8.8Zm61.91,29.532a17.614,17.614,0,0,0,3.78-11.33,16.971,16.971,0,0,0-6.03-13.581q-5.46-4.62-17.76-4.621h-10.97v62.037h9.36V362.5h1.69l17.72,25.393h11.45l-19.2-26.438A16.844,16.844,0,0,0,1347.46,355.387Zm-21.62-20.732h3.34q12.93,0,12.94,9.522,0,10.165-13.3,10.165h-2.98V334.655Z"/>
      <path id="ELIZABETH" class="cls-1" d="M124.922,325.855H90.69v62.037h34.232v-8.8H100.051V358.36H124.2v-8.8H100.051V334.655h24.871v-8.8Zm35.3,0v62.037h27.6v-8.8H169.585V325.855h-9.362Zm59.489,0v62.037h9.362V325.855h-9.362Zm88.458,0H267.308v8.8h25.473l-30.455,53.237h45.161v-8.8H277.714Zm76.2,62.037h10.246l-29.612-65.934-30.7,65.934H344.4l6.911-15.067h26.558ZM355.2,364.026l9.643-21.094,9.2,21.094H355.2Zm84.36,23.866a40.426,40.426,0,0,0,10.567-1.165,16.885,16.885,0,0,0,6.951-4.3,17.488,17.488,0,0,0,2.25-22.019,15,15,0,0,0-7.8-5.906,14.658,14.658,0,0,0,5.1-11.29,17.891,17.891,0,0,0-1.567-7.233,16.92,16.92,0,0,0-4.139-5.906,14.91,14.91,0,0,0-6.308-3.255,40.858,40.858,0,0,0-9.924-.964H425.38v62.037h14.183Zm-4.822-53.438h3.3q4.74,0,7.232,2.27t2.491,6.65q0,4.5-2.431,6.81t-7.654,2.31h-2.933v-18.04Zm0,25.875h4.741q7.554,0,10.487,2.692a8.751,8.751,0,0,1,3.013,6.75,8.611,8.611,0,0,1-3.134,6.831q-2.973,2.491-9.321,2.491h-5.786V360.329Zm96.534-34.474H497.043v62.037h34.232v-8.8H506.4V358.36h24.148v-8.8H506.4V334.655h24.871v-8.8Zm66.64,8.8v-8.8H560.067v8.8h14.264v53.237h9.361V334.655h14.223Zm40.726-8.8h-9.362v62.037h9.362V358.923H665.4v28.969h9.361V325.855H665.4v24.269H638.641V325.855Z"/>
    </g>
  </g>
</svg>
