<svg xmlns="http://www.w3.org/2000/svg" width="1440" height="720" viewBox="0 0 1440 720">
  <metadata><?xpacket begin="﻿" id="W5M0MpCehiHzreSzNTczkc9d"?>
<x:xmpmeta xmlns:x="adobe:ns:meta/" x:xmptk="Adobe XMP Core 5.6-c138 79.159824, 2016/09/14-01:09:01        ">
   <rdf:RDF xmlns:rdf="http://www.w3.org/1999/02/22-rdf-syntax-ns#">
      <rdf:Description rdf:about=""/>
   </rdf:RDF>
</x:xmpmeta>
                                                                                                    
                                                                                                    
                                                                                                    
                                                                                                    
                                                                                                    
                                                                                                    
                                                                                                    
                                                                                                    
                                                                                                    
                                                                                                    
                                                                                                    
                                                                                                    
                                                                                                    
                                                                                                    
                                                                                                    
                                                                                                    
                                                                                                    
                                                                                                    
                                                                                                    
                                                                                                    
                           
<?xpacket end="w"?></metadata>
<defs>
    <style>
      .cls-1 {
        fill: #5b7185;
        fill-rule: evenodd;
      }
    </style>
  </defs>
  <g id="GWBur">
    <path id="Gerry_Weber" data-name="Gerry Weber" class="cls-1" d="M975.9,2187.54H955.411v-21.79h20.556c9.808,0,13.838,3.74,13.838,10.39s-3.493,11.4-13.9,11.4m-20.489-54.29h17.466c11.353,0,13.435,5.5,13.435,10.45s-2.485,10.99-13.435,10.99H955.411v-21.44Zm31.506,25.65a16.9,16.9,0,0,0,10.613-16.69c0-8.28-3.829-20.36-25.594-20.36H943.655v77.16h29.894c20.623,0,27.471-9.5,27.471-21.72a17.734,17.734,0,0,0-14.1-18.52m-119.775-36.85v77.09h49.643v-11.27H878.9v-22.05h25.728v-11.2H878.9v-21.38h36.275v-11.19H867.142Zm158.6,0v77.09h49.65v-11.27h-37.82v-22.05h25.66v-11.2h-25.66v-21.38h36.2v-11.19h-48.03Zm-521.749,25.24c0,13.57-14.04,14.52-18.407,14.52H471.142v-28.91h14.442c13.436,0,18.407,7.47,18.407,14.39m-6.718,22.8a24.917,24.917,0,0,0,17.936-23.14c0-15.06-12.293-25.11-30.565-25.11H459.117v77.3h11.621v-26.67h11.756l21.765,26.67h14.577l-23.578-28.23,2.149-.82m167.066-48.04-20.623,36.37-20.555-36.37H609.859l28.147,50.89v26.13h11.756v-26.13l28.146-50.89H664.473Zm-280.122,0v77.09h49.642v-11.27H396.106v-22.05h25.729v-11.2H396.106v-21.38h36.275v-11.19h-48.03Zm-53.674,32.57v11.2h15.854v2.17c0,12.69-12.5,21.17-24.184,21.17a28.822,28.822,0,0,1-19.413-8.82,27.85,27.85,0,0,1-7.927-19.82,28.552,28.552,0,0,1,28.461-28.65,28.248,28.248,0,0,1,18.562,7.01h0.336l6.717-8.55h0a38.129,38.129,0,0,0-26.467-10.25,40.006,40.006,0,1,0,0,80.01,37.788,37.788,0,0,0,28.348-12.42,34.141,34.141,0,0,0,7.994-22.87v-10.18H330.677Zm254.4-7.33c0,13.57-14.04,14.52-18.407,14.52H552.156v-28.91H566.6c13.435,0,18.406,7.47,18.406,14.39m-6.717,22.8a24.919,24.919,0,0,0,18-23.14c0-15.06-12.293-25.11-30.565-25.11H540.2v77.3H551.82v-26.67h11.285l21.765,26.67h14.577l-22.907-28.23,2.15-.82m565.35-22.8c0,13.57-14.04,14.52-18.41,14.52h-14.44v-28.91h14.44c13.78,0,18.41,7.47,18.41,14.39m-6.72,22.8a24.918,24.918,0,0,0,17.94-23.14c0-15.06-12.29-25.11-30.57-25.11h-25.52v77.3h11.62v-26.67h11.49l21.76,26.67h14.58l-23.31-28.23,2.15-.82m-302.293-48.04-17.735,55.03-21.5-55.03h-6.852l-21.5,55.03-17.734-55.03H737.292l27.072,77.09h6.851l21.362-53,21.362,53h6.785l27.475-77.09H835.167Z" transform="translate(0 -1800)"/>
    <path id="BURLINGTON" class="cls-1" d="M438.333,2293.95h16.31a29.106,29.106,0,0,0,7.245-.87,18.955,18.955,0,0,0,5.915-2.59,12.285,12.285,0,0,0,5.46-10.61,13.015,13.015,0,0,0-.8-4.69,10.847,10.847,0,0,0-2.275-3.64,11.416,11.416,0,0,0-3.5-2.48,14.459,14.459,0,0,0-4.41-1.23v-0.14a12.13,12.13,0,0,0,6.3-3.85,10.346,10.346,0,0,0,2.38-6.93,11.824,11.824,0,0,0-1.365-5.95,11.287,11.287,0,0,0-3.57-3.85,14.785,14.785,0,0,0-5-2.1,25.447,25.447,0,0,0-5.6-.63h-17.08v49.56Zm6.93-43.75h7.91a15.593,15.593,0,0,1,7.91,1.72q2.94,1.71,2.94,5.7a7.282,7.282,0,0,1-.77,3.47,6.936,6.936,0,0,1-2.1,2.38,9.412,9.412,0,0,1-3.115,1.4,15.27,15.27,0,0,1-3.745.45h-9.03V2250.2Zm0,21h9.31q5.67,0,8.68,1.96t3.01,6.37a7.445,7.445,0,0,1-1.085,4.17,8,8,0,0,1-2.87,2.62,12.981,12.981,0,0,1-3.99,1.37,26.072,26.072,0,0,1-4.375.38h-8.68V2271.2Zm79.449,22.37a17.369,17.369,0,0,0,6.019-4.38,17.921,17.921,0,0,0,3.535-6.26,23.45,23.45,0,0,0,1.155-7.32v-31.22h-6.93v30.8a20.352,20.352,0,0,1-.63,5.01,12.831,12.831,0,0,1-2.064,4.44,10.333,10.333,0,0,1-3.815,3.15,14.864,14.864,0,0,1-11.655,0,10.376,10.376,0,0,1-3.78-3.15,12.8,12.8,0,0,1-2.065-4.44,20.352,20.352,0,0,1-.63-5.01v-30.8h-6.93v31.22a23.45,23.45,0,0,0,1.155,7.32,17.905,17.905,0,0,0,3.535,6.26,17.345,17.345,0,0,0,6.02,4.38A23.055,23.055,0,0,0,524.712,2293.57Zm43.328-21.67h7.42l12.6,22.05h8.4L582.6,2271.2a15.661,15.661,0,0,0,8.68-4.27,11.929,11.929,0,0,0,3.359-8.82,13.446,13.446,0,0,0-1.4-6.4,11.5,11.5,0,0,0-3.814-4.24,16.863,16.863,0,0,0-5.635-2.34,30.435,30.435,0,0,0-6.79-.74H561.11v49.56h6.93V2271.9Zm0-21.63h8.47a22.609,22.609,0,0,1,4.27.39,10.379,10.379,0,0,1,3.535,1.29,7.028,7.028,0,0,1,2.415,2.42,7.194,7.194,0,0,1-2.485,9.94,11.448,11.448,0,0,1-3.675,1.36,23.211,23.211,0,0,1-4.55.42h-7.98v-15.82Zm56.979-5.88h-6.93v49.56h29.049v-6.16H625.019v-43.4Zm49.768,0h-6.93v49.56h6.93v-49.56Zm35.069,0h-9.03v49.56h6.93v-40.46h0.14l26.179,40.46h8.75v-49.56H735.9v39.62h-0.14Zm101.217,5.18a22.561,22.561,0,0,0-7.735-4.69,29.924,29.924,0,0,0-10.605-1.75,28.556,28.556,0,0,0-10.5,1.89,25.064,25.064,0,0,0-8.365,5.29,23.89,23.89,0,0,0-5.53,8.19,27.311,27.311,0,0,0-2,10.6,27.606,27.606,0,0,0,1.96,10.54,24.13,24.13,0,0,0,13.825,13.65,28.82,28.82,0,0,0,10.674,1.92,42.573,42.573,0,0,0,10.08-1.12,36.073,36.073,0,0,0,8.54-3.22v-24.01h-17.85v5.88h10.99v13.79a18.889,18.889,0,0,1-5.11,1.82,30.761,30.761,0,0,1-6.44.63,19.892,19.892,0,0,1-7.98-1.54,17.352,17.352,0,0,1-6.019-4.23,18.994,18.994,0,0,1-3.78-6.34,22.483,22.483,0,0,1-1.33-7.77,21.9,21.9,0,0,1,1.33-7.66,19.4,19.4,0,0,1,3.78-6.34,17.54,17.54,0,0,1,5.949-4.3,18.9,18.9,0,0,1,7.84-1.58,19.621,19.621,0,0,1,7.735,1.47,16.176,16.176,0,0,1,5.705,3.92Zm40.25,0.91h15.89v-6.09H828.5v6.09h15.89v43.47h6.93v-43.47Zm82.352,8.02a24.148,24.148,0,0,0-5.5-8.19,24.687,24.687,0,0,0-8.329-5.29,30.014,30.014,0,0,0-20.965,0,24.756,24.756,0,0,0-8.295,5.29,23.71,23.71,0,0,0-5.46,8.19,29.481,29.481,0,0,0,0,21.14,24.584,24.584,0,0,0,5.46,8.26,24.844,24.844,0,0,0,8.295,5.39,29.575,29.575,0,0,0,20.965,0,24.772,24.772,0,0,0,8.329-5.39,25.051,25.051,0,0,0,5.5-8.26A29,29,0,0,0,933.675,2258.5Zm-6.825,18.37a19.042,19.042,0,0,1-3.779,6.34,17.54,17.54,0,0,1-5.95,4.23,19.037,19.037,0,0,1-7.77,1.54,18.542,18.542,0,0,1-7.7-1.54,17.7,17.7,0,0,1-5.88-4.23,18.994,18.994,0,0,1-3.78-6.34,22.483,22.483,0,0,1-1.33-7.77,21.9,21.9,0,0,1,1.33-7.66,19.741,19.741,0,0,1,3.745-6.34,17.286,17.286,0,0,1,5.88-4.3,19.895,19.895,0,0,1,15.54,0,17.671,17.671,0,0,1,5.915,4.3,19.45,19.45,0,0,1,3.779,6.34,21.928,21.928,0,0,1,1.33,7.66A22.507,22.507,0,0,1,926.85,2276.87Zm41.3-32.48h-9.03v49.56h6.93v-40.46h0.14l26.179,40.46h8.751v-49.56h-6.931v39.62h-0.14Z" transform="translate(0 -1800)"/>
  </g>
</svg>
