<svg xmlns="http://www.w3.org/2000/svg" width="1440" height="720" viewBox="0 0 1440 720">
  <metadata><?xpacket begin="﻿" id="W5M0MpCehiHzreSzNTczkc9d"?>
<x:xmpmeta xmlns:x="adobe:ns:meta/" x:xmptk="Adobe XMP Core 5.6-c138 79.159824, 2016/09/14-01:09:01        ">
   <rdf:RDF xmlns:rdf="http://www.w3.org/1999/02/22-rdf-syntax-ns#">
      <rdf:Description rdf:about=""/>
   </rdf:RDF>
</x:xmpmeta>
                                                                                                    
                                                                                                    
                                                                                                    
                                                                                                    
                                                                                                    
                                                                                                    
                                                                                                    
                                                                                                    
                                                                                                    
                                                                                                    
                                                                                                    
                                                                                                    
                                                                                                    
                                                                                                    
                                                                                                    
                                                                                                    
                                                                                                    
                                                                                                    
                                                                                                    
                                                                                                    
                           
<?xpacket end="w"?></metadata>
<defs>
    <style>
      .cls-1 {
        fill: #5b7185;
        fill-rule: evenodd;
      }
    </style>
  </defs>
  <g id="GWTor">
    <path id="Gerry_Weber" data-name="Gerry Weber" class="cls-1" d="M975.9,1287.54H955.411v-21.79h20.556c9.808,0,13.838,3.74,13.838,10.39s-3.493,11.4-13.9,11.4m-20.489-54.29h17.466c11.353,0,13.435,5.5,13.435,10.45s-2.485,10.99-13.435,10.99H955.411v-21.44Zm31.506,25.65a16.9,16.9,0,0,0,10.613-16.69c0-8.28-3.829-20.36-25.594-20.36H943.655v77.16h29.894c20.623,0,27.471-9.5,27.471-21.72a17.734,17.734,0,0,0-14.1-18.52m-119.775-36.85v77.09h49.643v-11.27H878.9v-22.05h25.728v-11.2H878.9v-21.38h36.275v-11.19H867.142Zm158.6,0v77.09h49.65v-11.27h-37.82v-22.05h25.66v-11.2h-25.66v-21.38h36.2v-11.19h-48.03Zm-521.749,25.24c0,13.57-14.04,14.52-18.407,14.52H471.142v-28.9h14.442c13.436,0,18.407,7.46,18.407,14.38m-6.718,22.8a24.917,24.917,0,0,0,17.936-23.14c0-15.06-12.293-25.11-30.565-25.11H459.117v77.3h11.621v-26.67h11.756l21.765,26.67h14.577l-23.578-28.23,2.149-.82m167.066-48.04-20.623,36.37-20.555-36.37H609.859l28.147,50.89v26.13h11.756v-26.13l28.146-50.89H664.473Zm-280.122,0v77.09h49.642v-11.27H396.106v-22.05h25.729v-11.2H396.106v-21.38h36.275v-11.19h-48.03Zm-53.674,32.57v11.2h15.854v2.17c0,12.69-12.5,21.17-24.184,21.17a28.822,28.822,0,0,1-19.413-8.82,27.85,27.85,0,0,1-7.927-19.82,28.552,28.552,0,0,1,28.461-28.65,28.248,28.248,0,0,1,18.562,7.01h0.336l6.717-8.55h0a38.129,38.129,0,0,0-26.467-10.25,40.006,40.006,0,1,0,0,80.01,37.788,37.788,0,0,0,28.348-12.42,34.141,34.141,0,0,0,7.994-22.87v-10.18H330.677Zm254.4-7.33c0,13.57-14.04,14.52-18.407,14.52H552.156v-28.9H566.6c13.435,0,18.406,7.46,18.406,14.38m-6.717,22.8a24.919,24.919,0,0,0,18-23.14c0-15.06-12.293-25.11-30.565-25.11H540.2v77.3H551.82v-26.67h11.285l21.765,26.67h14.577l-22.907-28.23,2.15-.82m565.35-22.8c0,13.57-14.04,14.52-18.41,14.52h-14.44v-28.9h14.44c13.78,0,18.41,7.46,18.41,14.38m-6.72,22.8a24.918,24.918,0,0,0,17.94-23.14c0-15.06-12.29-25.11-30.57-25.11h-25.52v77.3h11.62v-26.67h11.49l21.76,26.67h14.58l-23.31-28.23,2.15-.82m-302.293-48.04-17.735,55.03-21.5-55.03h-6.852l-21.5,55.03-17.734-55.03H737.292l27.072,77.09h6.851l21.362-53,21.362,53h6.785l27.475-77.09H835.167Z" transform="translate(0 -900)"/>
    <path id="TORONTO" class="cls-1" d="M525.726,1350.48h15.89v-6.09H502.907v6.09H518.8v43.47h6.93v-43.47Zm82.352,8.02a24.131,24.131,0,0,0-5.494-8.19,24.692,24.692,0,0,0-8.33-5.29,30.014,30.014,0,0,0-20.965,0,24.756,24.756,0,0,0-8.295,5.29,23.71,23.71,0,0,0-5.46,8.19,29.5,29.5,0,0,0,0,21.14,24.584,24.584,0,0,0,5.46,8.26,24.844,24.844,0,0,0,8.295,5.39,29.575,29.575,0,0,0,20.965,0,24.776,24.776,0,0,0,8.33-5.39,25.033,25.033,0,0,0,5.494-8.26A29,29,0,0,0,608.078,1358.5Zm-6.824,18.37a19.027,19.027,0,0,1-3.78,6.34,17.53,17.53,0,0,1-5.95,4.23,19.037,19.037,0,0,1-7.77,1.54,18.542,18.542,0,0,1-7.7-1.54,17.7,17.7,0,0,1-5.88-4.23,18.994,18.994,0,0,1-3.78-6.34,22.483,22.483,0,0,1-1.33-7.77,21.9,21.9,0,0,1,1.33-7.66,19.741,19.741,0,0,1,3.745-6.34,17.286,17.286,0,0,1,5.88-4.3,19.895,19.895,0,0,1,15.54,0,17.661,17.661,0,0,1,5.915,4.3,19.435,19.435,0,0,1,3.78,6.34,21.928,21.928,0,0,1,1.33,7.66A22.507,22.507,0,0,1,601.254,1376.87Zm39.2-4.97h7.42l12.6,22.05h8.4l-13.86-22.75a15.661,15.661,0,0,0,8.68-4.27,11.926,11.926,0,0,0,3.36-8.82,13.446,13.446,0,0,0-1.4-6.4,11.506,11.506,0,0,0-3.815-4.24,16.863,16.863,0,0,0-5.635-2.34,30.426,30.426,0,0,0-6.789-.74h-15.89v49.56h6.93V1371.9Zm0-21.63h8.47a22.616,22.616,0,0,1,4.27.39,10.381,10.381,0,0,1,3.534,1.29,7.028,7.028,0,0,1,2.415,2.42,7.194,7.194,0,0,1-2.485,9.94,11.451,11.451,0,0,1-3.674,1.36,23.211,23.211,0,0,1-4.55.42h-7.98v-15.82Zm98.033,8.23a24.148,24.148,0,0,0-5.5-8.19,24.692,24.692,0,0,0-8.33-5.29,30.014,30.014,0,0,0-20.965,0,24.742,24.742,0,0,0-8.294,5.29,23.71,23.71,0,0,0-5.46,8.19,29.481,29.481,0,0,0,0,21.14,24.282,24.282,0,0,0,13.754,13.65,29.575,29.575,0,0,0,20.965,0,24.776,24.776,0,0,0,8.33-5.39,25.051,25.051,0,0,0,5.5-8.26A29,29,0,0,0,738.486,1358.5Zm-6.825,18.37a19.027,19.027,0,0,1-3.78,6.34,17.53,17.53,0,0,1-5.95,4.23,19.037,19.037,0,0,1-7.77,1.54,18.542,18.542,0,0,1-7.7-1.54,17.7,17.7,0,0,1-5.88-4.23,18.975,18.975,0,0,1-3.779-6.34,22.483,22.483,0,0,1-1.33-7.77,21.9,21.9,0,0,1,1.33-7.66,19.721,19.721,0,0,1,3.744-6.34,17.286,17.286,0,0,1,5.88-4.3,19.895,19.895,0,0,1,15.54,0,17.661,17.661,0,0,1,5.915,4.3,19.435,19.435,0,0,1,3.78,6.34,21.928,21.928,0,0,1,1.33,7.66A22.507,22.507,0,0,1,731.661,1376.87Zm41.3-32.48h-9.03v49.56h6.93v-40.46H771l26.179,40.46h8.75v-49.56H799v39.62h-0.14Zm76.368,6.09h15.889v-6.09H826.508v6.09H842.4v43.47h6.93v-43.47Zm82.352,8.02a24.148,24.148,0,0,0-5.5-8.19,24.692,24.692,0,0,0-8.33-5.29,28.566,28.566,0,0,0-10.5-1.89,28.279,28.279,0,0,0-10.464,1.89,24.756,24.756,0,0,0-8.295,5.29,23.71,23.71,0,0,0-5.46,8.19,29.481,29.481,0,0,0,0,21.14,24.584,24.584,0,0,0,5.46,8.26,24.844,24.844,0,0,0,8.295,5.39,27.888,27.888,0,0,0,10.464,1.92,28.17,28.17,0,0,0,10.5-1.92,24.776,24.776,0,0,0,8.33-5.39,25.051,25.051,0,0,0,5.5-8.26A29,29,0,0,0,931.68,1358.5Zm-6.825,18.37a19.027,19.027,0,0,1-3.78,6.34,17.53,17.53,0,0,1-5.95,4.23,19.037,19.037,0,0,1-7.77,1.54,18.534,18.534,0,0,1-7.7-1.54,17.7,17.7,0,0,1-5.88-4.23,18.994,18.994,0,0,1-3.78-6.34,22.483,22.483,0,0,1-1.33-7.77,21.9,21.9,0,0,1,1.33-7.66,19.741,19.741,0,0,1,3.745-6.34,17.286,17.286,0,0,1,5.88-4.3,19.893,19.893,0,0,1,15.539,0,17.661,17.661,0,0,1,5.915,4.3,19.435,19.435,0,0,1,3.78,6.34,21.928,21.928,0,0,1,1.33,7.66A22.507,22.507,0,0,1,924.855,1376.87Z" transform="translate(0 -900)"/>
  </g>
</svg>
