<svg xmlns="http://www.w3.org/2000/svg" xmlns:xlink="http://www.w3.org/1999/xlink" viewBox="6000 0 540 720">
  <defs>
    <style>
      .cls-1 {
        clip-path: url(#clip-C);
      }

      .cls-2 {
        fill: #e0e0e0;
      }

      .cls-3 {
        fill: #b9b9b9;
      }

      .cls-4 {
        fill: #6e6e6e;
      }
    </style>
    <clipPath id="clip-C">
      <rect x="6000" width="540" height="720"/>
    </clipPath>
  </defs>
  <g id="C" class="cls-1">
    <g id="Parking" transform="matrix(0.966, -0.259, 0.259, 0.966, 6073.692, 68.587)">
      <path id="Path_3" data-name="Path 3" class="cls-2" d="M232.061,514.966H25.3V499.659c0-4.212-1.868-5.6-5.731-5.6H7.474L0,497.775l2.423-24.336,5.386,5.4H35.83s5.568.174,5.558,5.587.024,8.875,2.883,8.862c0-11.455,0-12.2,0-12.2H182.563V379.021H154.75V260.543H133.682V142.291H79.677v-7.323c-6.353,0-9.086,2.1-9.086,7.323v70.967L54.2,253.08c-.282.685-.027,1.351.822,1.351h9.074v36.887h.174v5.627h-8.46c-2.079,0-2.079,2.712-2.079,4.415v8.561h2.163v-8.41H87.609v68.24H53.085l-.024-8.1c0-2-4.09-2.244-4.09.089l.006,8.01H33.244V345.518c0-1.576-.539-2.282-2.088-2.282,0,0-13.613-.609-15.017-.436-1.816.223-2.693,1.008-3.41,4.613s2.646-24.2,2.646-24.2,3.824,4.7,9.257,5.776,8.285,1.7,12.731.5,6.217-8.082,6.217-11.344V253.817L60.592,211.7c.286-.707,0-1.238-.857-1.238H49.318V142.468h9.914v-1.682H49.12s-11.6-1.92-18.422,6.868l2.392-26.724a24.213,24.213,0,0,0,8.32,2.82c4.48.547,4.847.095,9.9.588l10.859,1.915.292-1.656-10.885-1.919,14.1-80.459L91.051,0h22.469L237.18,495.971ZM53.73,325.538v19.944h2.163V325.539Z" transform="translate(0)"/>
    </g>
    <g id="Road" transform="translate(5988.103 -24.129)">
      <path id="Path_10" data-name="Path 10" class="cls-3" d="M-2723.383,477.875c-1.067-6.051-10.3-26.363-13.585-45.007l-6.364-36.092c-1.239-7.027-8.791-9.885-16.658-7.777l-153.45,41.044-6.052-22.584,154.51-41.564c9.518-2.551,14.344-9.946,12.681-19.506s-6.2-35.134-6.2-35.134c-7.336-42.076-5.088-61.364-6.518-69.517l-35.9-203.591c-9.611-54.506-22.07-86.521-32.6-146.56s-10.6-60.1-10.6-60.1l44.723-7.886s.011.057,10.6,60.1,10.718,97.227,20.814,154.484l42.933,243.487c1.783,10.112,9.408,28.751,11.956,42.868l9.638,54.662c1.167,6.661,2.207,11.693,2.487,13.18s-4.015,3.092-3.541,5.781l31.027,175.964-31.942,5.632Z" transform="translate(2919.491 176.404)"/>
    </g>
    <g id="Building" transform="matrix(0.966, -0.259, 0.259, 0.966, 6157.635, 196.39)">
      <path id="Path_11" data-name="Path 11" class="cls-4" d="M134.557,335.913H0V292.089H16.534v-14.9H4.866V233.847h44.1v-87.7H19.724V87.191H34.78V58.357H26.021V0H87.176V115.368H107.6V233.847h26.96Z" transform="translate(0 0)"/>
    </g>
  </g>
</svg>
